<svg width="24" height="25" viewBox="0 0 24 25" fill="none" xmlns="http://www.w3.org/2000/svg">
<path d="M15 14.5H9C8.73478 14.5 8.48043 14.6054 8.29289 14.7929C8.10536 14.9804 8 15.2348 8 15.5C8 15.7652 8.10536 16.0196 8.29289 16.2071C8.48043 16.3946 8.73478 16.5 9 16.5H15C15.2652 16.5 15.5196 16.3946 15.7071 16.2071C15.8946 16.0196 16 15.7652 16 15.5C16 15.2348 15.8946 14.9804 15.7071 14.7929C15.5196 14.6054 15.2652 14.5 15 14.5ZM15 10.5H11C10.7348 10.5 10.4804 10.6054 10.2929 10.7929C10.1054 10.9804 10 11.2348 10 11.5C10 11.7652 10.1054 12.0196 10.2929 12.2071C10.4804 12.3946 10.7348 12.5 11 12.5H15C15.2652 12.5 15.5196 12.3946 15.7071 12.2071C15.8946 12.0196 16 11.7652 16 11.5C16 11.2348 15.8946 10.9804 15.7071 10.7929C15.5196 10.6054 15.2652 10.5 15 10.5ZM17 4.5H15.82C15.6137 3.91645 15.2319 3.411 14.7271 3.05294C14.2222 2.69488 13.6189 2.50174 13 2.5H11C10.3811 2.50174 9.7778 2.69488 9.27293 3.05294C8.76807 3.411 8.38631 3.91645 8.18 4.5H7C6.20435 4.5 5.44129 4.81607 4.87868 5.37868C4.31607 5.94129 4 6.70435 4 7.5V19.5C4 20.2956 4.31607 21.0587 4.87868 21.6213C5.44129 22.1839 6.20435 22.5 7 22.5H17C17.7956 22.5 18.5587 22.1839 19.1213 21.6213C19.6839 21.0587 20 20.2956 20 19.5V7.5C20 6.70435 19.6839 5.94129 19.1213 5.37868C18.5587 4.81607 17.7956 4.5 17 4.5ZM10 5.5C10 5.23478 10.1054 4.98043 10.2929 4.79289C10.4804 4.60536 10.7348 4.5 11 4.5H13C13.2652 4.5 13.5196 4.60536 13.7071 4.79289C13.8946 4.98043 14 5.23478 14 5.5V6.5H10V5.5ZM18 19.5C18 19.7652 17.8946 20.0196 17.7071 20.2071C17.5196 20.3946 17.2652 20.5 17 20.5H7C6.73478 20.5 6.48043 20.3946 6.29289 20.2071C6.10536 20.0196 6 19.7652 6 19.5V7.5C6 7.23478 6.10536 6.98043 6.29289 6.79289C6.48043 6.60536 6.73478 6.5 7 6.5H8V7.5C8 7.76522 8.10536 8.01957 8.29289 8.20711C8.48043 8.39464 8.73478 8.5 9 8.5H15C15.2652 8.5 15.5196 8.39464 15.7071 8.20711C15.8946 8.01957 16 7.76522 16 7.5V6.5H17C17.2652 6.5 17.5196 6.60536 17.7071 6.79289C17.8946 6.98043 18 7.23478 18 7.5V19.5Z" fill="white"/>
</svg>
