<svg width="14" height="15" viewBox="0 0 14 15" fill="none" xmlns="http://www.w3.org/2000/svg">
<path d="M6.99992 0.833252C3.33325 0.833252 0.333252 3.83325 0.333252 7.49992C0.333252 11.1666 3.33325 14.1666 6.99992 14.1666C10.6666 14.1666 13.6666 11.1666 13.6666 7.49992C13.6666 3.83325 10.6666 0.833252 6.99992 0.833252ZM9.46659 9.03325C9.73325 9.29992 9.73325 9.69992 9.46659 9.96659C9.19992 10.2333 8.79992 10.2333 8.53325 9.96659L6.99992 8.43325L5.46659 9.96659C5.19992 10.2333 4.79992 10.2333 4.53325 9.96659C4.26659 9.69992 4.26659 9.29992 4.53325 9.03325L6.06659 7.49992L4.53325 5.96659C4.26659 5.69992 4.26659 5.29992 4.53325 5.03325C4.79992 4.76659 5.19992 4.76659 5.46659 5.03325L6.99992 6.56659L8.53325 5.03325C8.79992 4.76659 9.19992 4.76659 9.46659 5.03325C9.73325 5.29992 9.73325 5.69992 9.46659 5.96659L7.93325 7.49992L9.46659 9.03325Z" fill="#909090"/>
</svg>
