<svg width="24" height="20" viewBox="0 0 24 20" fill="none" xmlns="http://www.w3.org/2000/svg">
<path d="M7.5625 1C4.08643 1 1.125 3.59913 1.125 6.97474C1.125 9.30344 2.21543 11.264 3.66061 12.888C5.10083 14.5065 6.95893 15.865 8.63872 17.002L11.537 18.9639C11.8544 19.1787 12.2706 19.1787 12.588 18.9639L15.4863 17.0021C17.1661 15.865 19.0242 14.5065 20.4644 12.888C21.9096 11.264 23 9.30344 23 6.97474C23 3.59913 20.0386 1 16.5625 1C14.7707 1 13.1939 1.84017 12.0625 2.92729C10.9311 1.84017 9.35434 1 7.5625 1Z" fill="#9747FF" stroke="#9747FF" stroke-linecap="round" stroke-linejoin="round"/>
</svg>
