<svg width="24" height="25" viewBox="0 0 24 25" fill="none" xmlns="http://www.w3.org/2000/svg">
<path fill-rule="evenodd" clip-rule="evenodd" d="M8.25 9.5C8.25 7.42893 9.92893 5.75 12 5.75C14.0711 5.75 15.75 7.42893 15.75 9.5C15.75 11.5711 14.0711 13.25 12 13.25C9.92893 13.25 8.25 11.5711 8.25 9.5ZM12 7.25C10.7574 7.25 9.75 8.25736 9.75 9.5C9.75 10.7426 10.7574 11.75 12 11.75C13.2426 11.75 14.25 10.7426 14.25 9.5C14.25 8.25736 13.2426 7.25 12 7.25Z" fill="white"/>
<path fill-rule="evenodd" clip-rule="evenodd" d="M5.45641 8.62724C5.73017 5.30603 8.50555 2.75 11.838 2.75H12.162C15.4945 2.75 18.2698 5.30603 18.5436 8.62724C18.6903 10.4075 18.1404 12.1753 17.0097 13.5581L13.4149 17.9545C12.6836 18.8488 11.3164 18.8488 10.5851 17.9545L6.99032 13.5581C5.85958 12.1752 5.30967 10.4075 5.45641 8.62724ZM11.838 4.25C9.28621 4.25 7.16097 6.20726 6.95134 8.75046C6.83652 10.1434 7.2668 11.5266 8.15154 12.6086L11.7463 17.005C11.8774 17.1653 12.1226 17.1653 12.2537 17.005L15.8485 12.6086C16.7332 11.5266 17.1635 10.1434 17.0487 8.75046C16.839 6.20726 14.7138 4.25 12.162 4.25H11.838Z" fill="white"/>
<path d="M7.67082 16.8354C7.85606 16.4649 7.70589 16.0144 7.33541 15.8292C6.96493 15.6439 6.51442 15.7941 6.32918 16.1646L4.32918 20.1646C4.21293 20.3971 4.22536 20.6732 4.36201 20.8943C4.49867 21.1154 4.74007 21.25 5 21.25H19C19.2599 21.25 19.5013 21.1154 19.638 20.8943C19.7746 20.6732 19.7871 20.3971 19.6708 20.1646L17.6708 16.1646C17.4856 15.7941 17.0351 15.6439 16.6646 15.8292C16.2941 16.0144 16.1439 16.4649 16.3292 16.8354L17.7865 19.75H6.21353L7.67082 16.8354Z" fill="white"/>
</svg>
