<svg width="16" height="19" viewBox="0 0 16 19" fill="none" xmlns="http://www.w3.org/2000/svg">
<path d="M5.75 7C5.75 5.75736 6.75736 4.75 8 4.75C9.24264 4.75 10.25 5.75736 10.25 7C10.25 8.24264 9.24264 9.25 8 9.25C6.75736 9.25 5.75 8.24264 5.75 7Z" fill="#9747FF"/>
<path fill-rule="evenodd" clip-rule="evenodd" d="M7.83803 0.5C4.63566 0.5 1.96864 2.95623 1.70556 6.14777C1.56414 7.8635 2.09411 9.56714 3.18386 10.8999L6.77866 15.2962C7.4099 16.0682 8.59011 16.0682 9.22135 15.2962L12.8161 10.8999C13.9059 9.56714 14.4359 7.8635 14.2944 6.14777C14.0314 2.95623 11.3643 0.5 8.16198 0.5H7.83803ZM8 3.25C5.92893 3.25 4.25 4.92893 4.25 7C4.25 9.07107 5.92893 10.75 8 10.75C10.0711 10.75 11.75 9.07107 11.75 7C11.75 4.92893 10.0711 3.25 8 3.25Z" fill="#9747FF"/>
<path d="M3.33541 13.3292C3.70589 13.5144 3.85606 13.9649 3.67082 14.3354L2.21353 17.25H13.7865L12.3292 14.3354C12.1439 13.9649 12.2941 13.5144 12.6646 13.3292C13.0351 13.1439 13.4856 13.2941 13.6708 13.6646L15.6708 17.6646C15.7871 17.8971 15.7746 18.1732 15.638 18.3943C15.5013 18.6154 15.2599 18.75 15 18.75H1C0.740068 18.75 0.498668 18.6154 0.362013 18.3943C0.225358 18.1732 0.212935 17.8971 0.32918 17.6646L2.32918 13.6646C2.51442 13.2941 2.96493 13.1439 3.33541 13.3292Z" fill="#9747FF"/>
</svg>
