<svg width="14" height="15" viewBox="0 0 14 15" fill="none" xmlns="http://www.w3.org/2000/svg">
<path d="M13.4733 13.0266L10.9999 10.5733C11.96 9.37621 12.4249 7.8568 12.2991 6.32747C12.1733 4.79814 11.4664 3.37512 10.3236 2.35103C9.18085 1.32694 7.68914 0.77961 6.15522 0.821583C4.6213 0.863557 3.16175 1.49164 2.0767 2.5767C0.991644 3.66175 0.363557 5.1213 0.321583 6.65522C0.27961 8.18914 0.82694 9.68085 1.85103 10.8236C2.87512 11.9664 4.29814 12.6733 5.82747 12.7991C7.3568 12.9249 8.87621 12.46 10.0733 11.4999L12.5266 13.9533C12.5886 14.0158 12.6623 14.0654 12.7436 14.0992C12.8248 14.133 12.9119 14.1505 12.9999 14.1505C13.0879 14.1505 13.1751 14.133 13.2563 14.0992C13.3376 14.0654 13.4113 14.0158 13.4733 13.9533C13.5934 13.829 13.6606 13.6628 13.6606 13.4899C13.6606 13.317 13.5934 13.1509 13.4733 13.0266V13.0266ZM6.33327 11.4999C5.41029 11.4999 4.50804 11.2262 3.74061 10.7135C2.97318 10.2007 2.37504 9.47185 2.02183 8.61913C1.66862 7.7664 1.57621 6.82809 1.75627 5.92285C1.93634 5.0176 2.38079 4.18608 3.03344 3.53344C3.68608 2.88079 4.5176 2.43634 5.42285 2.25627C6.32809 2.07621 7.2664 2.16862 8.11913 2.52183C8.97185 2.87504 9.70068 3.47318 10.2135 4.24061C10.7262 5.00804 10.9999 5.91029 10.9999 6.83327C10.9999 8.07095 10.5083 9.25793 9.6331 10.1331C8.75793 11.0083 7.57095 11.4999 6.33327 11.4999V11.4999Z" fill="#9747FF"/>
</svg>
